<?xml version="1.0" encoding="utf-8"?>
<!-- Generator: Adobe Illustrator 24.3.0, SVG Export Plug-In . SVG Version: 6.00 Build 0)  -->
<svg version="1.1" id="Capa_1" xmlns="http://www.w3.org/2000/svg" xmlns:xlink="http://www.w3.org/1999/xlink" x="0px" y="0px"
	 viewBox="0 0 841.9 595.3" style="enable-background:new 0 0 841.9 595.3;" xml:space="preserve">
<style type="text/css">
	.st0{fill:#020203;}
</style>
<g>
	<path class="st0" d="M734.4,256.3c1.7,3.7,4,7.2,6,10.8c8.8,15.4,17.7,30.8,26.6,46.2c0.5,0.8,0.7,2.1,1.7,2.2
		c1.1,0,1.3-1.4,1.8-2.2c8.7-15.4,17.4-30.8,26-46.2c2-3.5,4.1-7,5.9-10.7c0.5,0,1,0,1.5,0c0.3,1,0.5,2,0.6,3.1
		c0.2,7,0.4,14.1,0.6,21.1c0.3,9.2,0.8,18.4,1.2,27.5c0.1,2.7,0.1,5.3,0.2,8c0.4,6.3,0.5,12.6,0.7,19c0.1,2.2-0.2,2.4-2.4,2.5
		c-1.6,0-3.1,0-4.7,0c-1.1,0-1.7-0.5-1.7-1.7c0-2.3-0.2-4.5-0.3-6.8c-0.2-8-0.1-16.1-0.4-24.1c-0.3-7.2-0.1-14.4-0.6-21.5
		c0-0.4,0.1-0.8-0.3-1.1c-0.6,0.1-0.7,0.8-1,1.2c-8.7,14.8-17.4,29.6-26,44.4c-1,1.8-1.8,1.8-2.9-0.1c-7.3-12.3-14.6-24.7-21.9-37
		c-1.5-2.6-3.1-5.2-4.6-7.8c-0.2-0.3-0.3-0.9-0.8-0.7c-0.5,0.1-0.4,0.7-0.4,1c0,0.2,0,0.4,0,0.6c-0.1,9.5,0,19-0.4,28.5
		c-0.3,7.7,0.1,15.4-0.5,23c-0.1,1.5-0.6,2.1-2.1,2.1c-1.7-0.1-3.4,0-5.1,0c-1,0-1.4-0.5-1.4-1.5c0.4-10.3,0.6-20.6,1.1-30.9
		c0.3-8,0.7-16.1,0.9-24.1c0.2-7.7,0.6-15.4,0.9-23c0-0.5,0.2-1.1,0.3-1.6C733.4,256.3,733.9,256.3,734.4,256.3z"/>
	<path class="st0" d="M464.5,256.3c1.4,2.4,3.4,4.3,5.2,6.5c9.6,11.5,19.2,23,28.9,34.4c5.2,6.2,10.4,12.3,15.5,18.5
		c0.2,0.3,0.4,0.8,0.9,0.6c0.4-0.2,0.3-0.7,0.3-1.1c0-4.7,0-9.4,0-14.2c0-13.5,0-27,0-40.5c0-2.5,0.2-2.7,2.6-2.7c1.5,0,3,0,4.5,0
		c1,0,1.6,0.5,1.6,1.6c0,0.6,0,1.1,0,1.7c0,24.9,0,49.7,0,74.6c0,1.1,0.1,2.2-0.3,3.3c-0.3,0-0.6,0-0.9,0
		c-3.6-4.3-7.1-8.6-10.7-12.9c-7.3-8.8-14.6-17.5-21.9-26.3c-5.8-6.9-11.5-13.8-17.3-20.7c-0.4-0.4-0.7-1.2-1.4-1
		c-0.7,0.2-0.4,1.1-0.4,1.6c0,18.1,0,36.2,0,54.2c0,0.6,0,1.2,0,1.8c0,1.1-0.5,1.7-1.7,1.7c-1.7,0-3.4,0-5.1,0
		c-1.1,0-1.7-0.6-1.7-1.7c0-0.5,0-0.9,0-1.4c0-25,0-49.9,0-74.9c0-1.1-0.2-2.2,0.6-3.2C463.7,256.3,464.1,256.3,464.5,256.3z"/>
	<path class="st0" d="M394.7,297.5c0-12.3,0-24.6,0-36.9c0-2.7,0.1-2.8,2.8-2.8c13.6,0,27.3,0,40.9,0c2.7,0,2.8,0.1,2.8,2.8
		c0,1.2,0,2.3,0,3.5c0,1-0.5,1.5-1.5,1.5c-0.6,0-1.1,0-1.7,0c-10.7,0-21.5,0-32.2,0c-2.6,0-2.7,0.1-2.7,2.7c0,7.3,0,14.6,0,21.9
		c0,2.7,0.1,2.8,2.8,2.8c9.6,0,19.1,0,28.7,0c2.5,0,2.7,0.2,2.7,2.7c0,1.1,0,2.1,0,3.2c0,1.7-0.3,2-2.1,2c-3.8,0-7.7,0-11.5,0
		c-6,0-12.1,0-18.1,0c-2.2,0-2.4,0.2-2.4,2.4c0,7.9,0,15.9,0,23.8c0,2.2,0.2,2.4,2.4,2.4c10.8,0,21.7,0,32.5,0c3.2,0,3.2,0,3.2,3.2
		c0,1,0,2,0,3c0,1-0.5,1.6-1.6,1.6c-0.4,0-0.8,0-1.2,0c-13.6,0-27.3,0-40.9,0c-2.7,0-2.8-0.1-2.8-2.8
		C394.7,322.3,394.7,309.9,394.7,297.5z"/>
	<path class="st0" d="M161,338.6c-3.5,0.1-7,0-10.5-0.8c-11.7-2.4-19.5-10.8-21.2-22.6c-0.2-1.5-0.3-3.1-0.3-4.7
		c0-16.6,0-33.3,0-49.9c0-2.8,0.1-2.9,2.9-2.9c1.7,0,3.3,0,5,0c0.5,0.6,0.5,1.3,0.5,2c0,16,0.1,32.1,0,48.1c0,4.9,0.6,9.5,3,13.8
		c2.6,4.6,6.6,7.5,11.7,8.7c3.1,0.7,6.2,0.9,9.4,0.6c3.1-0.2,6.1-0.9,8.8-2.4c4.2-2.2,7-5.5,8.7-10c1.5-4.1,1.8-8.3,1.8-12.6
		c0-15.5,0.1-30.9,0-46.4c0-0.7-0.1-1.5,0.6-1.9c2.2,0,4.4,0,6.7,0c0.7,0.3,0.5,0.8,0.5,1.4c0.2,14.8,0,29.6,0.1,44.4
		c0,2.3-0.2,4.6,0.3,6.9c0,0.1,0,0.2,0,0.3c-0.9,2.2-0.8,4.6-1.4,7c-2.4,9.1-8,15.3-16.8,18.5c-2.7,1-5.5,1.4-8.2,1.8
		C161.9,338.3,161.4,338.4,161,338.6z"/>
	<path class="st0" d="M266.2,300.4c5.6,0,11.3,0,16.9,0c2.2,0,2.5,0.3,2.4,2.4c-0.6,8.8-3.4,16.8-9.3,23.6
		c-7.3,8.3-16.6,12.1-27.5,12.3c-12,0.2-22.5-3.6-31-12.1c-7.5-7.5-11-16.7-11.4-27.3c-0.2-7.9,1.3-15.3,5.4-22.1
		c6.9-11.5,17.2-18.2,30.4-20.1c12.2-1.7,23.5,1,33.7,8c1.5,1,1.6,1.4,0.6,2.9c-0.8,1.2-1.6,2.3-2.3,3.5c-0.7,1.2-1.4,1.3-2.6,0.5
		c-5.9-3.9-12.3-6.6-19.3-7.3c-9.9-1.1-18.9,1-26.3,7.9c-5.5,5.1-8.5,11.6-9.7,19c-1.4,8.7-0.1,17,4.6,24.5
		c5.5,8.9,13.7,13.8,24.2,14.8c7.5,0.7,14.4-0.8,20.6-5.1c5.4-3.7,8.9-8.8,10.3-15.2c0.5-2,0.3-2.3-1.9-2.3c-8.3,0-16.5,0-24.8,0
		c-2.7,0-2.8-0.1-2.8-2.8c0-0.9,0-1.8,0-2.7c0-2,0.3-2.3,2.3-2.3C254.6,300.3,260.4,300.4,266.2,300.4z"/>
	<path class="st0" d="M94.5,300.4c5.6,0,11.3,0,16.9,0c2.3,0,2.6,0.3,2.4,2.5c-0.9,17.8-12.7,32.9-31.7,35.4
		c-12.3,1.6-23.4-1.3-33.1-9.2c-8.2-6.7-12.7-15.5-14-26c-1.2-9.5,0.4-18.5,5.6-26.6c8.2-12.7,20-19.3,35.1-19.9
		c7.1-0.2,14,1,20.6,3.9c3,1.3,5.8,3,8.5,4.8c0.9,0.6,1,1.3,0.4,2.1c-0.9,1.3-1.9,2.6-2.7,4c-0.7,1.2-1.4,1.2-2.6,0.5
		c-4.8-3.2-9.9-5.6-15.6-6.7c-10.1-2-19.7-0.9-28.1,5.7c-7,5.5-10.8,12.9-11.9,21.6c-1.3,9.6,0.6,18.4,6.7,26.1
		c5.5,7.1,12.8,11.1,21.8,12.1c8.3,0.8,15.8-0.9,22.4-6.1c4.7-3.7,7.7-8.6,9-14.4c0.4-1.8,0.2-2.1-1.8-2.1c-8.3,0-16.6,0-24.9,0
		c-2.7,0-2.8-0.1-2.8-2.8c0-1,0-2,0-3c0-1.7,0.3-2,2.1-2C82.8,300.3,88.6,300.4,94.5,300.4z"/>
	<path class="st0" d="M340.8,308.2c-0.9-0.1-1.2-0.7-1.2-1.5c0-1.6,0-3.2,0-4.8c0-1,0.5-1.5,1.5-1.5c0.4,0,0.8,0,1.2,0
		c11.2,0,22.4,0,33.5,0c2.6,0,2.8,0.2,2.7,2.7c-1,17.4-12.5,32.6-31.8,35.2c-12.1,1.6-23.1-1.3-32.6-8.8
		c-8.1-6.3-12.8-14.8-14.3-24.9c-1.6-10.9,0.2-21.1,6.7-30.1c8.2-11.4,19.5-17.4,33.6-17.9c10.5-0.4,20.1,2.4,28.8,8.4
		c1.7,1.2,1.7,1.3,0.6,2.9c-0.7,1-1.4,2.1-2.1,3.1c-1.3,1.9-1.3,1.9-3.2,0.7c-4.7-3.1-9.7-5.3-15.2-6.4c-9.6-1.9-18.9-1-27.1,4.9
		c-7.3,5.3-11.4,12.7-12.7,21.5c-1.8,11.6,1,22,9.4,30.5c10.7,10.7,29.1,12,40.8,3c4.8-3.7,8.1-8.5,9.5-14.5
		c0.2-0.9,0.6-1.9-0.6-2.5c-0.3-0.4-0.2-0.8,0.2-1.2c2-0.1,2.7,0.6,2.3,2.7c-0.8,4.9-3.1,9.2-6.4,12.9c-4.3,4.9-9.7,8-16.1,9.2
		c-11.7,2.2-22-0.4-30.7-8.8c-5.6-5.4-8.8-11.9-10.1-19.6c-0.4-2.3,0.1-4.6-0.1-6.9c-0.5-5.8,1.1-11.2,3.7-16.2
		c5.4-10,13.7-16,25.1-17.5c9.6-1.3,18.3,1.4,26.6,6c0.4,0.2,0.7,0.4,1,0.6c1.5,0.8,2.2,0.7,3.2-0.7c1.2-1.7,1-2.5-0.7-3.6
		c-6.2-3.8-12.8-6.3-20.1-6.7c-1.5-0.1-2.8-0.7-4.3-0.6c-10.2,0.4-19.5,3.3-27.2,10c-7.2,6.2-11.8,14.1-13.1,23.6
		c-0.3,2-0.9,4-0.7,6.1c0.6,8.7,2.5,16.9,7.9,23.9c5,6.5,11.5,10.9,19.3,13.4c3.9,1.3,8,2.1,12,2.1c9.4,0.1,18-2.5,25.1-8.9
		c7-6.4,10.7-14.5,11.6-23.8c0.1-0.8,0.2-1.5-0.6-2c-0.5-0.3-1-0.3-1.6-0.4c-7.4-0.4-14.8-0.7-22.2-0.7c-3.1,0-6.1,0.9-9.3,0.7
		c-0.3,0-0.6,0.1-0.8,0.3c-0.1,0.1-0.2,0.2-0.4,0.3c-0.7,0.7-0.4,1.7-0.5,2.5c0,0.6,0.1,1.3-0.1,1.9c0,0.1-0.1,0.3-0.1,0.4
		C341.1,307.7,341,308,340.8,308.2z"/>
	<path class="st0" d="M181.3,257.9c-0.3,1.2-0.3,2.4-0.3,3.6c0,15.7,0.1,31.4,0,47.2c0,5.6-1.1,11-4.7,15.6
		c-3.4,4.3-8.1,6.4-13.5,7.2c-3.1,0.4-6.1,0.3-9.1-0.2c-9.1-1.6-15.2-8.2-16.4-17.5c-0.3-2.3,0-4.5,0-6.8c0-15.4,0-30.7,0-46.1
		c0-1-0.2-2-0.3-3c0.8,0.8,0.6,1.8,0.6,2.7c0,16,0,31.9,0,47.9c0,3.7,0.5,7.3,1.9,10.8c2.2,5.6,6.3,9.1,12,10.7
		c4.4,1.2,8.9,1.3,13.3,0.3c8.1-1.7,12.9-6.8,14.8-14.7c0.7-2.9,0.9-5.9,0.9-8.8c0-15.5,0-30.9,0-46.4
		C180.4,259.4,180.1,258.4,181.3,257.9z"/>
	<path class="st0" d="M188.8,310.6c-0.6-1.4-0.6-2.8-0.6-4.3c0-15.1,0-30.2,0-45.3c0-1.1,0.1-2.1-0.3-3.1c1.1,0.4,0.9,1.4,0.9,2.2
		c0,6.2,0,12.3,0,18.5C188.8,289.2,188.8,299.9,188.8,310.6z"/>
	<path class="st0" d="M161,338.6c0.6-0.6,1.4-0.8,2.2-0.9c7.2-0.7,13.4-3.6,18.3-9c3.8-4.3,5.8-9.5,6.4-15.2c0.1-1,0.2-1.9,0.9-2.6
		c-0.7,14.3-9.4,25.2-24.3,27.4C163.3,338.4,162.2,338.5,161,338.6z"/>
	<path class="st0" d="M369,307.6c-0.2,0.2-0.4,0.4-0.6,0.6c-9.2,0-18.4,0-27.5,0c-0.1-0.2-0.2-0.4-0.3-0.6c0.5-0.9,1.5-0.7,2.3-0.7
		c5.9,0,11.9,0,17.8,0c2.3,0,4.5,0,6.8,0C368,306.9,368.8,306.6,369,307.6z"/>
	<path class="st0" d="M607.8,297.6c0,12.4,0,24.7,0,37.1c0,2.6-0.1,2.7-2.7,2.7c-1.3,0-2.6,0-3.9,0c-1.3,0-1.8-0.6-1.8-1.8
		c0-0.6,0-1.1,0-1.7c0-10,0-20.1,0-30.1c0-2.6-0.2-2.8-2.8-2.8c-12.4,0-24.9,0-37.3,0c-2.5,0-2.8,0.2-2.8,2.8c0,10.3,0,20.7,0,31
		c0,2.5-0.2,2.7-2.6,2.7c-1.4,0-2.8,0-4.2,0c-1.1,0-1.6-0.5-1.6-1.6c0-0.5,0-1,0-1.5c0-24.5,0-48.9,0-73.4c0-0.4,0-0.8,0-1.2
		c-0.1-1.3,0.6-1.9,1.9-1.9c1.6,0,3.1,0,4.7,0c1.4,0,1.9,0.6,1.9,1.9c0,3.1,0,6.1,0,9.2c0,7.2,0,14.4,0,21.6c0,2.3,0.3,2.6,2.6,2.6
		c12.6,0,25.2,0,37.8,0c2.3,0,2.5-0.3,2.5-2.5c0-10,0-20,0-30c0-2.6,0.1-2.7,2.7-2.8c1.4,0,2.8,0,4.2,0c1,0,1.5,0.5,1.5,1.5
		c0,0.6,0,1.2,0,1.8C607.8,273.3,607.8,285.5,607.8,297.6z"/>
	<path class="st0" d="M697.8,297.7c0-12.4,0-24.7,0-37.1c0-2.6,0.1-2.7,2.7-2.8c1.5,0,2.9,0,4.4,0c1.1,0,1.7,0.5,1.7,1.7
		c0,0.5,0,1,0,1.5c0,24.4,0,48.8,0,73.2c0,0.5,0,0.9,0,1.4c0,1.2-0.5,1.9-1.8,1.8c-1.7,0-3.4,0-5.1,0c-1.3,0-1.8-0.6-1.8-1.8
		c0-3,0-6,0-9C697.8,316.9,697.8,307.3,697.8,297.7z"/>
	<path class="st0" d="M631.3,297.6c0-12.3,0-24.5,0-36.8c0-2.8,0.1-3,3-3c13.6,0,27.2,0,40.8,0c2.6,0,2.7,0.1,2.7,2.7
		c0,1.1,0,2.1,0,3.2c0.1,1.4-0.6,2-2,1.9c-0.6,0-1.1,0-1.7,0c-10.5,0-21,0-31.4,0c-2.5,0-2.7,0.2-2.7,2.6c0,7.4,0,14.9,0,22.3
		c0,2.3,0.2,2.5,2.5,2.5c9.7,0,19.3,0,29,0c2.4,0,2.6,0.2,2.6,2.5c0,1.3,0,2.5,0,3.8c0,1-0.5,1.5-1.5,1.5c-0.6,0-1.1,0-1.7,0
		c-9.5,0-18.9,0-28.4,0c-2.4,0-2.6,0.2-2.6,2.6c0,7.8,0,15.6,0,23.4c0,2.5,0.2,2.7,2.6,2.7c10.8,0,21.6,0,32.3,0
		c2.7,0,2.8,0.1,2.8,2.8c0,0.9,0,1.8,0,2.7c0,2.1-0.3,2.3-2.4,2.3c-13.9,0-27.8,0-41.7,0c-2.1,0-2.4-0.3-2.4-2.5
		C631.3,322.5,631.3,310,631.3,297.6z"/>
	<path class="st0" d="M802.8,258.5c0.5,1.9,0.9,3.5,0.6,5.1c0,0.2-0.1,0.4-0.1,0.6c0.4,4.4,0.1,8.8,0.7,13.2c0.1,0.9,0.1,1.8,0,2.7
		c-0.1,1.6-0.2,3.1,0.2,4.7c0.3,1.2,0.4,2.4,0.1,3.6c-0.1,0.3-0.1,0.6-0.1,0.9c0.6,4.3,0,8.6,0.7,12.9c0.2,1.2-0.3,2.3-0.1,3.5
		c0.5,4.3,0,8.6,0.7,12.9c0.2,1.1-0.3,2.2-0.1,3.3c0.5,4.2,0,8.5,0.7,12.7c0.2,1.5-0.1,1.9-1.6,2c-4.8,0.3-4.8,0.3-4.8-4.4
		c0-2.4-0.1-4.8-0.5-7.2c-0.4-2.9,0.3-5.7,0.2-8.6c-0.1-1.6,0-3.1-0.3-4.7c-0.6-2.9,0.1-5.8,0-8.7c-0.1-2.2-0.1-4.3-0.5-6.5
		c-0.4-3,0.3-5.9,0.2-8.9c-0.1-1.7-0.1-3.3-0.4-5c-0.2-0.8-0.1-1.8-1.2-2c-1-0.2-1.5,0.7-1.9,1.4c-3.2,5.3-6.3,10.6-9.4,16
		c-5.5,9.5-11.1,18.9-16.6,28.4c-0.7,1.2-1,1.2-1.8-0.2c-7.4-12.6-14.9-25.2-22.3-37.8c-1.3-2.2-2.6-4.4-3.9-6.6
		c-0.5-0.8-1-1.7-2.1-1.4c-1.1,0.3-1,1.4-1.1,2.3c0,0.1,0,0.2,0,0.3c0.7,6.2-0.8,12.3-0.3,18.5c0.5,5.3-0.7,10.4-0.3,15.6
		c0.4,5.8-0.2,11.6-0.3,17.4c0,1.5-0.6,2-2.1,2.1c-3.9,0.1-3.9,0.1-4.2-3.8c-0.1-1.5,0.6-2.9,0.5-4.3c-0.5-4.1,0.2-8.2,0.3-12.3
		c0.1-3.6-0.2-7.3,0.5-10.9c0.1-0.3,0.1-0.6,0.1-0.9c-0.5-4.1,0.2-8.2,0.3-12.3c0.1-3.7,0.2-7.4,0.4-11.1c0.2-4.3,0.7-8.6,0.4-12.9
		c-0.1-1.5,0.4-3,0.4-4.5c0-1.2-0.1-2.3-0.1-3.5c0-0.4-0.2-0.9,0.2-1.1c0.6-0.2,0.7,0.4,0.9,0.8c1.9,3.3,3.8,6.5,5.7,9.8
		c8.8,15.3,17.7,30.7,26.6,46c1.2,2.1,2.4,2.1,3.6,0c4.1-7.2,8.1-14.4,12.2-21.5c6.5-11.5,12.9-23,19.4-34.4
		C802.3,259.3,802.5,259.1,802.8,258.5z"/>
	<path class="st0" d="M464.4,258.4c2,2.4,4,4.7,6,7.1c11.2,13.3,22.4,26.7,33.5,40c2.9,3.5,5.9,7,8.8,10.5c0.3,0.4,0.7,0.7,1.1,1.1
		c0.5,0.5,1,1.1,1.8,0.7c0.7-0.4,0.8-1.1,0.8-1.8c0-0.7,0-1.4,0-2.1c0-17.4,0-34.8,0-52.2c0-2.9,0.1-3,3-3c0.1,0,0.2,0,0.3,0
		c3,0,3.1,0.1,3.1,3c0,24,0,48,0,72.1c0,0.7,0.3,1.8-0.4,2.1c-0.8,0.3-1.2-0.8-1.7-1.4c-15.9-18.9-31.7-37.9-47.5-56.8
		c-0.3-0.4-0.7-0.8-1.1-1c-0.8-0.5-1.5-0.2-1.7,0.7c-0.2,0.7-0.2,1.5-0.2,2.2c0,17.8,0,35.7,0,53.5c0,0.7,0,1.3,0,2
		c0,0.8-0.5,1.3-1.3,1.4c-0.1,0-0.2,0-0.3,0c-5.3,0.1-4.7,0.3-4.7-4.2c0-23.8,0-47.6,0-71.5c0-0.7,0-1.5,0-2.2
		C464,258.5,464.2,258.5,464.4,258.4z"/>
	<path class="st0" d="M266,301.3c5.4,0,10.8,0,16.2,0c2.2,0,2.4,0.2,2.2,2.4c-0.8,9.3-4.1,17.6-10.9,24.2
		c-5.1,4.9-11.3,7.9-18.2,9.1c-10.4,1.9-20.3,0.2-29.3-5.3c-10.8-6.6-16.9-16.4-18.4-29c-1.1-9.9,0.7-19.1,6.5-27.4
		c7-10.1,16.7-15.9,28.8-17.5c11.5-1.5,22.2,1,31.9,7.4c1.2,0.8,1.5,1.5,0.6,2.7c-2.9,4.3-2,3.6-5.9,1.5c-6.5-3.7-13.6-6.1-21.1-6.2
		c-15.3,0-27.3,8.3-31.9,23.1c-1.2,3.7-1.4,7.4-1.5,11.3c-0.1,5.2,0.8,10,2.9,14.6c4.6,10.4,12.6,16.9,23.8,19.1
		c8.1,1.6,15.8,0.4,22.9-3.9c6.6-3.9,10.8-9.7,12.5-17.2c0.5-2.2,0.1-2.8-2.2-2.8c-7.3,0-14.5,0-21.8,0c-1,0-2,0-3,0
		c-0.3,0-0.6,0-0.9,0c-1.8-0.1-2-0.4-2-3.7c0-2.2,0.2-2.6,2-2.6C254.8,301.2,260.4,301.3,266,301.3C266,301.3,266,301.3,266,301.3z"
		/>
	<path class="st0" d="M100.3,321.2c2.1-2.9,3.9-6,4.7-9.6c0.3-1.2,0.5-2.4,0.1-3.7c-1.3-0.6-2.6-0.3-3.9-0.3c-7.9,0-15.8,0-23.6,0
		c-0.5,0-1,0-1.5-0.3c-0.3-1.9-0.3-3.8,0-5.7c0.1-0.1,0.2-0.2,0.3-0.3c0.3-0.2,0.7-0.1,1-0.1c11.4,0,22.8,0,34.2,0
		c0.3,0,0.7-0.1,1,0.1c0.7,1.7,0.2,3.4-0.1,5c-1.2,7.8-4.4,14.8-9.8,20.6c-5.7,6.2-12.8,9.6-21.2,10.5c-1.6,0.2-3.1,0.7-4.8,0.7
		c-11.3-0.5-21.6-3.7-29.8-11.7c-7.1-6.9-10.7-15.6-11.4-25.6c-0.5-7.1,0.7-13.9,3.7-20.3c5.4-11.2,14.5-18,26.3-21.4
		c2.9-0.8,5.9-1.2,8.9-1.5c1.1-0.2,2.2-0.2,3.3,0c9,0.4,17.5,2.6,25,7.8c1.6,1.1,1.6,1.3,0.6,2.9c-2.7,4-2.1,3.5-5.8,1.4
		c-5.8-3.3-12-5.4-18.7-5.9c-10.3-0.8-19.3,2-26.6,9.5c-5.3,5.5-8.1,12.2-9,19.8c-0.1,0.8-0.2,1.7-0.3,2.5c0.2,1.4,0.2,2.8,0,4.2
		c0.5,6.7,2.4,12.9,6.3,18.4c5.5,7.7,13,12.2,22.5,13.5c8.7,1.2,16.7-0.9,23.8-6c0.6-0.5,1.2-1,1.8-1.5c0.4-0.4,0.8-0.8,1.2-1.2
		C99.1,322.3,99.8,321.8,100.3,321.2z"/>
	<path class="st0" d="M76.1,307.3c8.7,0,17.3,0,26,0c1.1,0,2.1-0.1,3.1,0.6c-8.8,0-17.5,0-26.3,0C77.9,307.9,76.9,308,76.1,307.3z"
		/>
	<path class="st0" d="M112.6,301.3c-12.1,0-24.2,0-36.3,0c0.8-0.3,1.7-0.3,2.5-0.3c10.4,0,20.8,0,31.2,0
		C111,301,111.8,300.9,112.6,301.3z"/>
	<path class="st0" d="M76.1,301.6c0,1.9,0,3.8,0,5.7C75.6,305.4,75.6,303.5,76.1,301.6z"/>
	<path class="st0" d="M43.1,299.7c0-1.4,0-2.8,0-4.2C43.6,296.9,43.6,298.3,43.1,299.7z"/>
	<path class="st0" d="M77.9,257.5c-1.1,0-2.2,0-3.3,0C75.7,257.1,76.8,257.1,77.9,257.5z"/>
	<path class="st0" d="M100.3,321.2c-0.3,0.8-0.9,1.3-1.5,1.8C99,322.2,99.6,321.6,100.3,321.2z"/>
	<path class="st0" d="M97.5,324.2c-0.5,0.7-1.1,1.2-1.8,1.5C96.1,325,96.8,324.5,97.5,324.2z"/>
	<path class="st0" d="M369,307.6c-9.5,0-18.9,0-28.4,0c-0.3-2.1-0.3-4.2,0-6.3c0.3-0.2,0.7-0.1,1-0.1c11.7,0,23.4,0,35.1,0
		c0.3,0,0.7-0.1,1,0.1c-0.2,9.6-3.2,18-9.7,25.2c-5.7,6.2-12.7,9.8-21,11c-10.9,1.6-21.1-0.8-30.2-6.9c-9.4-6.4-14.6-15.6-16.3-26.7
		c-1.7-11.2,0.9-21.4,7.8-30.4c7.1-9.2,16.7-14.4,28.4-15.7c11.3-1.2,21.6,1.4,31,7.5c1.7,1.1,1.7,1.3,0.6,3c-3,4.5-2,3.7-5.9,1.5
		c-5.1-3-10.6-5-16.4-5.8c-9-1.2-17.5,0.3-24.9,5.9c-5.7,4.3-9.8,9.8-11.7,16.8c-2.4,8.9-2.4,17.9,1.7,26.3
		c5.1,10.5,13.4,17.1,25.4,18.7c9.1,1.2,17.2-0.7,24.3-6.5c4.8-3.9,7.9-8.9,9.1-15.1C370.2,308.9,370.2,308,369,307.6z"/>
	<path class="st0" d="M377.7,301.3c-12.4,0-24.8,0-37.2,0c0.8-0.3,1.7-0.3,2.5-0.3c10.7,0,21.4,0,32.1,0
		C376.1,301,376.9,300.9,377.7,301.3z"/>
	<path class="st0" d="M340.6,301.3c0,2.1,0,4.2,0,6.3C340.1,305.5,340.1,303.4,340.6,301.3z"/>
	<path class="st0" d="M632.5,297.6c0-11.9,0-23.8,0-35.7c0-3,0.1-3.1,3-3.1c12.9,0,25.8,0,38.7,0c2.6,0,2.7,0.2,2.7,2.8
		c0,0.3,0,0.6,0,0.9c0,2-0.3,2.4-2.4,2.4c-10.1,0-20.1,0-30.2,0c-0.8,0-1.6,0-2.4,0c-2.3,0-2.7,0.4-2.7,2.8c0,1.1,0,2.2,0,3.3
		c0,6.5,0,13.1,0,19.6c0,3.3,0.3,3.6,3.5,3.6c9.3,0,18.5,0,27.8,0c0.9,0,2.2-0.4,2.6,0.7c0.5,1.4,0.6,3-0.1,4.4
		c-0.3,0.8-1.3,0.6-2.1,0.6c-8.6,0-17.1,0-25.7,0c-1.1,0-2.2,0-3.3,0c-2.2,0-2.7,0.5-2.8,2.8c0,7.4,0,14.9,0,22.3c0,1.1,0,2.1,0,3.2
		c0.1,2,0.5,2.5,2.6,2.5c7.4,0,14.8,0,22.2,0c3.6,0,7.2,0,10.7,0c1.9,0,2.2,0.4,2.3,2.2c0.1,3.8,0.1,3.8-3.8,3.8
		c-12.4,0-24.9,0-37.3,0c-3.3,0-3.3,0-3.3-3.4C632.5,321.3,632.5,309.4,632.5,297.6z"/>
</g>
</svg>
